HIERARCHY
ROOT Hips
{
  OFFSET 1.44925e-005 102.336 -0.101585
  CHANNELS 6 Xposition Yposition Zposition Zrotation Xrotation Yrotation
  JOINT LeftUpLeg
  {
    OFFSET 8.9458 -8.66707 0.101652
    CHANNELS 3 Zrotation Xrotation Yrotation
    JOINT LeftLeg
    {
      OFFSET 0 -44.4227 1.3727
      CHANNELS 3 Zrotation Xrotation Yrotation
      JOINT LeftFoot
      {
        OFFSET -0.253549 -42.0924 -1.46059
        CHANNELS 3 Zrotation Xrotation Yrotation
        JOINT LeftToes
        {
          OFFSET -0.04 -4.41509 8.4991
          CHANNELS 3 Zrotation Xrotation Yrotation
          End Site
          {
            OFFSET 0.08 -0.047448 9.77979
          }
        }
      }
    }
  }
  JOINT Spine
  {
    OFFSET 0 11.8905 0
    CHANNELS 3 Zrotation Xrotation Yrotation
    JOINT Spine1
    {
      OFFSET 0 25.6574 0.127663
      CHANNELS 3 Zrotation Xrotation Yrotation
      JOINT RightShoulder
      {
        OFFSET -8.99 -0.362252 -0.22
        CHANNELS 3 Zrotation Xrotation Yrotation
        JOINT RightArm
        {
          OFFSET -10.2827 -0.00338 0.322123
          CHANNELS 3 Zrotation Xrotation Yrotation
          JOINT RightForeArm
          {
            OFFSET -26.364 0.099144 -1.42434
            CHANNELS 3 Zrotation Xrotation Yrotation
            JOINT RightHand
            {
              OFFSET -22.0324 0.085362 1.02216
              CHANNELS 3 Zrotation Xrotation Yrotation
              End Site
              {
                OFFSET -13.3284 -0.6 1.50291
              }
            }
          }
        }
      }
      JOINT LeftShoulder1
      {
        OFFSET 8.99 -0.362252 -0.22
        CHANNELS 3 Zrotation Xrotation Yrotation
        JOINT LeftArm
        {
          OFFSET 10.2827 -0.00337999 0.322123
          CHANNELS 3 Zrotation Xrotation Yrotation
          JOINT LeftForeArm
          {
            OFFSET 26.2597 0.099144 -1.42434
            CHANNELS 3 Zrotation Xrotation Yrotation
            JOINT LeftHand
            {
              OFFSET 22.0902 0.085362 1.02216
              CHANNELS 3 Zrotation Xrotation Yrotation
              End Site
              {
                OFFSET 13.419 -0.6 1.50291
              }
            }
          }
        }
      }
      JOINT Head
      {
        OFFSET 0 8.73416 0.011341
        CHANNELS 3 Zrotation Xrotation Yrotation
        End Site
        {
          OFFSET -0.29 12.7742 2.51395
        }
      }
    }
  }
  JOINT RightUpLeg
  {
    OFFSET -8.9458 -8.66707 0.101652
    CHANNELS 3 Zrotation Xrotation Yrotation
    JOINT RightLeg
    {
      OFFSET 0 -44.4227 1.3727
      CHANNELS 3 Zrotation Xrotation Yrotation
      JOINT RightFoot
      {
        OFFSET 0.253549 -42.0924 -1.46059
        CHANNELS 3 Zrotation Xrotation Yrotation
        JOINT RightToes
        {
          OFFSET 0.04 -4.41509 8.4991
          CHANNELS 3 Zrotation Xrotation Yrotation
          End Site
          {
            OFFSET -0.08 -0.137448 9.77979
          }
        }
      }
    }
  }
}
MOTION
Frames:	14
Frame Time:	0.0333333
186.328 103.038 4.60874 -2.30262 0.0467081 -92.7931 -1.5628 0.833852 2.54303 -1.00786 8.68183 25.3904 -0.843111 -11.8973 0.0310552 -1.28949e-009 8.75243e-006 -1.47077e-008 2.47071 7.19198 0.137874 -2.55468 -2.03222 0.709278 35.9801 1.70636 0.0543619 43.3343 -17.9109 8.00249 8.72653 38.1688 7.4269 -10.1465 9.52032 -0.774267 -44.4824 3.547 -3.42373 -26.3855 -11.824 -0.85319 -5.64977 36.0836 -13.3891 5.82328 9.61819 -0.917488 -2.14294 -7.70446 -4.79425 -1.45834 -0.640889 -3.77294 -0.499799 10.6471 -6.93086 3.83939 -12.0197 -0.0514374 0.0462048 0.000530889 0.662642 
186.316 103.038 4.6249 -2.28472 0.0487192 -92.8209 -1.55827 0.827037 2.56169 -1.03303 8.67423 25.3933 -0.841591 -11.9076 0.0310564 -1.28949e-009 8.75243e-006 -1.47077e-008 2.4608 7.11491 0.136913 -2.52975 -1.91109 0.710144 35.936 1.70636 0.0543619 43.4101 -17.9087 8.04918 8.73293 38.141 7.42103 -9.67195 9.53745 -0.749336 -44.5454 3.547 -3.42373 -26.3471 -10.8915 -0.730267 -5.51746 35.0303 -13.8177 5.82328 9.61819 -0.917488 -2.36226 -7.76114 -4.9288 -1.46443 -0.662001 -3.77362 -0.502689 10.645 -6.87916 3.8782 -12.0069 -0.0514349 0.0462048 0.000530889 0.662642 
186.294 103.038 4.66372 -2.26647 0.0391469 -92.8558 -1.58821 0.869975 2.55639 -1.0505 8.57015 25.4207 -0.827689 -11.8704 0.0310521 -1.28949e-009 8.75243e-006 -1.47077e-008 2.50662 7.03456 0.131532 -2.60779 -1.77432 0.718866 35.956 1.70636 0.0520801 43.438 -17.8661 8.0933 8.73145 38.2349 7.41482 -9.27865 9.54668 -0.657558 -44.5595 3.547 -3.42373 -26.3843 -10.5346 -0.735629 -5.52198 34.5329 -13.938 5.82328 9.61819 -0.917488 -2.11806 -7.66264 -4.74472 -1.50095 -0.657776 -3.79975 -0.499206 10.5966 -6.78391 3.89359 -11.9819 -0.0514302 0.0462048 0.000530889 0.662642 
186.279 103.038 4.70787 -2.24818 0.0269219 -92.8664 -1.64262 0.912029 2.51154 -1.03453 8.45296 25.4723 -0.789764 -11.8131 0.0310456 -1.28949e-009 8.75243e-006 -1.47077e-008 2.61917 7.03136 0.118691 -2.7918 -1.76149 0.740352 36.0694 1.70636 0.0425966 43.3658 -17.6663 8.07985 8.72222 38.2729 7.46369 -9.19813 9.53393 -0.43066 -44.5172 3.54662 -3.42414 -26.4376 -10.7432 -0.800716 -5.56456 34.6765 -13.8436 5.82328 9.61819 -0.917488 -1.29792 -7.46024 -4.18205 -1.56123 -0.643305 -3.86229 -0.464662 10.5353 -6.70303 3.89178 -11.9575 -0.0514255 0.0462048 0.000530889 0.662642 
186.278 103.038 4.7404 -2.21718 0.0291625 -92.8483 -1.67543 0.883081 2.46716 -1.00756 8.43445 25.5065 -0.759226 -11.8018 0.0310443 -1.28949e-009 8.75243e-006 -1.47077e-008 2.73432 7.0792 0.0993202 -2.95747 -1.83958 0.750977 36.1886 1.70636 0.0338484 43.2782 -17.3535 8.02943 8.70538 38.0823 7.59012 -9.12871 9.51815 -0.163295 -44.4886 3.54454 -3.42536 -26.4161 -10.5805 -0.753241 -5.46246 34.5 -14.0031 5.82328 9.61819 -0.917488 -0.825672 -7.50869 -3.86587 -1.61362 -0.660693 -3.93572 -0.399825 10.5109 -6.67219 3.88508 -11.9379 -0.0514218 0.0462048 0.000530889 0.662642 
186.291 103.037 4.7627 -2.17625 0.0413096 -92.8258 -1.67746 0.801068 2.4494 -0.99732 8.48978 25.508 -0.759752 -11.8325 0.0310478 -1.28949e-009 8.75243e-006 -1.47077e-008 2.7971 7.12575 0.0929941 -3.03237 -1.91036 0.757504 36.2615 1.70636 0.0307575 43.231 -17.1959 8.00705 8.66543 37.9526 7.70157 -9.0616 9.51293 -0.047335 -44.4633 3.54031 -3.42579 -26.384 -10.1546 -0.685743 -5.32571 34.1123 -14.2665 5.82328 9.61819 -0.917488 -1.12015 -7.79546 -4.0498 -1.6401 -0.711112 -3.9798 -0.345431 10.519 -6.67867 3.85727 -11.9336 -0.051421 0.0462048 0.000530889 0.662642 
186.311 103.036 4.78573 -2.14795 0.0507535 -92.8272 -1.67609 0.742975 2.44527 -1.00176 8.51896 25.5096 -0.767943 -11.8444 0.0310492 -1.28949e-009 8.75243e-006 -1.47077e-008 2.80812 7.18242 0.121121 -3.03299 -1.96159 0.785845 36.2964 1.70636 0.0272203 43.2228 -17.2972 8.0395 8.63086 38.0863 7.69915 -9.32594 9.51142 -0.176823 -44.4116 3.53611 -3.42581 -26.4219 -10.1468 -0.749095 -5.32807 34.1951 -14.2493 5.82328 9.61819 -0.917488 -1.50083 -7.90705 -4.23393 -1.64359 -0.75538 -3.97527 -0.339538 10.5183 -6.69304 3.84416 -11.9326 -0.0514208 0.0462048 0.000530889 0.662642 
186.331 103.036 4.81086 -2.14823 0.0607898 -92.8432 -1.68103 0.738201 2.44152 -1.00424 8.50459 25.522 -0.747969 -11.8224 0.0310467 -1.28949e-009 8.75243e-006 -1.47077e-008 2.7953 7.27067 0.171772 -2.98246 -2.02085 0.829118 36.2902 1.70636 0.0199259 43.2624 -17.3654 8.08449 8.65979 38.0228 7.64973 -9.9578 9.51371 -0.505371 -44.38 3.53482 -3.4252 -26.476 -10.5444 -0.877927 -5.43015 34.6344 -14.0181 5.82328 9.61819 -0.917488 -1.44023 -7.74621 -4.07852 -1.63024 -0.763207 -3.93812 -0.372908 10.4931 -6.71467 3.89486 -11.8953 -0.0514137 0.0462048 0.000530889 0.662642 
186.346 103.035 4.83125 -2.15531 0.0784329 -92.8292 -1.67735 0.728182 2.43983 -1.00055 8.5197 25.5102 -0.71871 -11.815 0.0310458 -1.28949e-009 8.75243e-006 -1.47077e-008 2.78916 7.33138 0.205755 -2.91505 -2.05242 0.853279 36.2584 1.70636 0.0128192 43.3278 -17.1188 8.08963 8.73363 37.3375 7.71663 -10.5708 9.51554 -0.867347 -44.3918 3.53696 -3.42387 -26.476 -10.8401 -0.935567 -5.49684 34.8382 -13.8783 5.82328 9.61819 -0.917488 -1.31538 -7.64387 -3.90155 -1.60965 -0.754947 -3.90411 -0.400833 10.4702 -6.7558 3.95335 -11.8346 -0.0514023 0.0462048 0.000530889 0.662642 
186.357 103.035 4.84524 -2.13113 0.0963985 -92.7698 -1.66226 0.653246 2.43566 -0.995719 8.59534 25.4635 -0.722474 -11.8407 0.0310487 -1.28949e-009 8.75243e-006 -1.47077e-008 2.82804 7.31136 0.201324 -2.92132 -2.04863 0.850558 36.2874 1.70724 0.00920737 43.3246 -16.7 8.04993 8.76075 36.5091 7.91317 -10.8411 9.51207 -1.00824 -44.3628 3.5315 -3.41774 -26.4741 -10.9012 -0.90771 -5.49449 34.7708 -13.886 5.82328 9.61819 -0.917488 -1.42435 -7.69529 -3.91267 -1.59953 -0.776264 -3.89851 -0.391466 10.4697 -6.8011 3.93865 -11.8226 -0.0514 0.0462048 0.000530889 0.662642 
186.369 103.034 4.8575 -2.08806 0.105501 -92.7109 -1.65297 0.561207 2.42287 -0.990882 8.66076 25.4227 -0.734472 -11.8543 0.0310503 -1.28949e-009 8.75243e-006 -1.47077e-008 2.92443 7.28698 0.175191 -3.04841 -2.10276 0.845487 36.4291 1.71149 0.00754522 43.2163 -16.4775 7.99927 8.69398 36.3719 8.07475 -10.6903 9.49911 -0.778875 -44.2508 3.51526 -3.40264 -26.529 -10.8569 -0.80206 -5.41743 34.6961 -13.9861 5.82328 9.61819 -0.917488 -1.46409 -7.65165 -3.86467 -1.60877 -0.818259 -3.91822 -0.356088 10.4673 -6.82116 3.904 -11.8542 -0.051406 0.0462048 0.000530889 0.662642 
186.379 103.035 4.87108 -2.09131 0.104846 -92.6933 -1.66362 0.561847 2.41085 -0.986393 8.64785 25.4139 -0.70017 -11.8341 0.031048 -1.28949e-009 8.75243e-006 -1.47077e-008 3.01407 7.34709 0.160412 -3.18218 -2.22077 0.853727 36.588 1.71756 0.00876097 43.1132 -16.5724 7.97705 8.58168 36.9591 8.10361 -10.1876 9.48587 -0.35995 -44.1561 3.50693 -3.4005 -26.5951 -10.6887 -0.614978 -5.23747 34.5512 -14.2233 5.82328 9.61819 -0.917488 -1.33011 -7.50579 -3.7158 -1.62725 -0.809223 -3.94292 -0.335403 10.4367 -6.81917 3.93112 -11.8391 -0.0514031 0.0462048 0.000530889 0.662642 
186.389 103.036 4.88492 -2.16014 0.0942418 -92.6933 -1.69013 0.659136 2.40789 -0.987833 8.59141 25.4126 -0.651766 -11.822 0.0310466 -1.28949e-009 8.75243e-006 -1.47077e-008 3.01517 7.4214 0.175635 -3.1777 -2.23965 0.871523 36.6361 1.72334 0.0182549 43.101 -16.765 7.9925 8.49962 37.5025 8.07848 -9.64987 9.49316 -0.147176 -44.1491 3.51506 -3.41567 -26.6405 -10.4943 -0.468891 -5.04868 34.3289 -14.4887 5.82328 9.61819 -0.917488 -1.32338 -7.47808 -3.77002 -1.64292 -0.730282 -3.95747 -0.353742 10.4091 -6.82708 3.96172 -11.7891 -0.0513938 0.0462048 0.000530889 0.662642 
186.404 103.037 4.89644 -2.22251 0.0784756 -92.6686 -1.71137 0.731284 2.40686 -0.999091 8.55804 25.3862 -0.656977 -11.8272 0.0310472 -1.28949e-009 8.75243e-006 -1.47077e-008 2.9595 7.41554 0.205421 -3.08775 -2.13624 0.890496 36.5931 1.73494 0.049052 43.0959 -16.8202 7.98886 8.48284 37.4684 8.09029 -9.54774 9.51175 -0.331576 -44.1409 3.51825 -3.42505 -26.709 -10.5784 -0.483101 -5.01651 34.3769 -14.5073 5.82328 9.61819 -0.917488 -1.38013 -7.47336 -3.97722 -1.65431 -0.670366 -3.96211 -0.386528 10.4301 -6.85805 3.93548 -11.8069 -0.0513971 0.0462048 0.000530889 0.662642 
